<svg width="129" height="40" viewBox="0 0 129 40" fill="none" xmlns="http://www.w3.org/2000/svg">
<g clip-path="url(#clip0_3593_9276)">
<path d="M20.1479 0C9.02136 0 0 8.95459 0 19.9988C0 31.0431 9.02136 39.9977 20.1479 39.9977C31.2745 39.9977 40.2959 31.0431 40.2959 19.9988C40.2959 8.95459 31.2769 0 20.1479 0ZM19.4715 30.4753C19.068 30.2232 18.6266 29.9711 18.2445 29.6861C17.7555 29.3304 17.2666 28.9346 16.8228 28.5129C16.6424 28.3621 16.2128 27.8909 16.0419 27.7119C15.75 27.4056 15.4794 27.0263 15.2112 26.6942C14.9668 26.3314 14.7057 25.9709 14.4945 25.5869C14.4019 25.4196 14.2168 25.0898 14.1266 24.9249C11.8172 20.331 12.3892 14.6558 15.0214 10.3422C15.159 10.1255 15.2872 9.93227 15.4438 9.72024C15.9541 9.06532 16.9652 9.60716 16.7041 10.3917C15.5815 14.2647 14.8149 18.4557 15.9043 22.4112C16.6661 25.1299 18.2777 27.3632 20.3426 29.361C20.9335 29.9617 20.2049 30.897 19.4715 30.4824V30.4753ZM27.3821 19.0683C27.1614 19.8528 25.0324 19.9517 22.5807 19.9635C20.129 19.9494 18 19.8528 17.7769 19.0683C17.549 18.3026 19.6733 17.0375 22.5807 17.0422C25.4858 17.0375 27.6123 18.3026 27.3821 19.0683ZM27.5981 12.1256C27.3774 12.9101 25.3125 13.0255 22.9438 13.0396C20.5752 13.0255 18.5103 12.9101 18.2896 12.1256C18.0617 11.3599 20.1218 10.1137 22.9438 10.116C25.7658 10.1113 27.8259 11.3576 27.5981 12.1256Z" fill="#E31837"/>
<path d="M57.3337 9.26546C57.6256 9.26546 57.8701 9.35969 58.0695 9.55051C58.2688 9.73898 58.3685 9.97928 58.3685 10.269C58.3685 10.5588 58.2688 10.7968 58.0695 10.9876C57.8701 11.1784 57.6233 11.2726 57.3337 11.2726H50.484C50.1921 11.2726 49.9476 11.1784 49.7483 10.9876C49.5489 10.7968 49.4492 10.5588 49.4492 10.269C49.4492 9.96279 49.5489 9.71778 49.7483 9.53873C49.9476 9.35969 50.1945 9.26781 50.484 9.26781H57.3337V9.26546ZM56.5718 3.0625C56.8804 3.0625 57.2032 3.10255 57.5402 3.185C57.8772 3.2651 58.1692 3.39232 58.4136 3.5643C58.6581 3.73627 58.7815 3.97657 58.7815 4.28283C58.7815 4.5726 58.6913 4.81054 58.5086 5.00137C58.3258 5.19219 58.1074 5.28642 57.8535 5.28642C57.6897 5.28642 57.4619 5.24166 57.1723 5.15214C56.8804 5.06262 56.5813 5.01786 56.2728 5.01786C55.8551 5.01786 55.5133 5.10738 55.2499 5.28878C54.9864 5.47018 54.7942 5.70812 54.6779 6.00731C54.5592 6.30651 54.4999 6.63397 54.4999 6.99677V21.9494C54.4999 22.2556 54.3954 22.5171 54.1866 22.7339C53.9777 22.9506 53.719 23.059 53.4081 23.059C53.0805 23.059 52.8171 22.9506 52.6177 22.7339C52.4184 22.5171 52.3187 22.2556 52.3187 21.9494V6.9897C52.3187 5.79764 52.6961 4.84588 53.4508 4.13206C54.2055 3.41823 55.2475 3.0625 56.5766 3.0625H56.5718Z" fill="#E31837"/>
<path d="M62.1917 7.01647C61.736 7.01647 61.4014 6.92695 61.183 6.74555C60.9646 6.5665 60.8555 6.2838 60.8555 5.90687V5.52757C60.8555 5.14828 60.9741 4.86794 61.2091 4.68889C61.4465 4.50749 61.7811 4.41797 62.2178 4.41797C62.6545 4.41797 62.9821 4.50749 63.2004 4.68889C63.4188 4.87029 63.5279 5.15064 63.5279 5.52757V5.90687C63.5279 6.28616 63.414 6.5665 63.1862 6.74555C62.9583 6.92695 62.626 7.01647 62.1893 7.01647H62.1917ZM63.312 21.9431C63.312 22.2494 63.2075 22.5109 62.9987 22.7276C62.7898 22.9444 62.5311 23.0527 62.2202 23.0527C61.8927 23.0527 61.6245 22.9444 61.4156 22.7276C61.2067 22.5109 61.1023 22.2494 61.1023 21.9431V9.94244C61.1023 9.63618 61.2067 9.37468 61.4156 9.15794C61.6245 8.9412 61.8927 8.83283 62.2202 8.83283C62.5287 8.83283 62.7874 8.9412 62.9987 9.15794C63.2075 9.37468 63.312 9.63618 63.312 9.94244V21.9431Z" fill="#E31837"/>
<path d="M74.2533 8.69531C75.4898 8.69531 76.4629 8.94739 77.1726 9.4539C77.8822 9.9604 78.3878 10.6365 78.6868 11.4846C78.9859 12.3327 79.1378 13.2916 79.1378 14.3564V21.9423C79.1378 22.2485 79.0333 22.51 78.8245 22.7268C78.6156 22.9435 78.3569 23.0519 78.046 23.0519C77.7184 23.0519 77.455 22.9435 77.2556 22.7268C77.0563 22.51 76.9566 22.2485 76.9566 21.9423V14.4106C76.9566 13.7251 76.8522 13.1008 76.6433 12.5424C76.4344 11.9841 76.0832 11.5365 75.5919 11.2019C75.1006 10.8674 74.4455 10.7001 73.6267 10.7001C72.8624 10.7001 72.1623 10.8674 71.5262 11.2019C70.8901 11.5365 70.3798 11.9841 69.9977 12.5424C69.6156 13.1031 69.4257 13.7251 69.4257 14.4106V21.9423C69.4257 22.2485 69.3213 22.51 69.1124 22.7268C68.9036 22.9435 68.6449 23.0519 68.334 23.0519C68.023 23.0519 67.7643 22.9435 67.5555 22.7268C67.3466 22.51 67.2422 22.2485 67.2422 21.9423V10.1583C67.2422 9.83319 67.3466 9.56698 67.5555 9.35966C67.7643 9.15235 68.023 9.04869 68.334 9.04869C68.6615 9.04869 68.9249 9.15235 69.1243 9.35966C69.3237 9.56698 69.4234 9.83319 69.4234 10.1583V12.0548L68.8775 12.6508C68.9677 12.182 69.1765 11.7084 69.5064 11.2279C69.834 10.7496 70.2422 10.3209 70.7335 9.94156C71.2248 9.56227 71.7707 9.26072 72.3711 9.03455C72.9716 8.80839 73.5982 8.69531 74.2533 8.69531Z" fill="#E31837"/>
<path d="M93.9316 21.0208C94.2236 21.0208 94.4728 21.1197 94.6816 21.3176C94.8905 21.5155 94.9949 21.7605 94.9949 22.0479C94.9949 22.3354 94.8905 22.5756 94.6816 22.7665C94.4728 22.9573 94.2212 23.0515 93.9316 23.0515H84.0511C83.7235 23.0515 83.4553 22.9573 83.2465 22.7665C83.0376 22.5756 82.9332 22.3189 82.9332 21.9938C82.9332 21.704 83.0424 21.4425 83.2607 21.2093L89.4292 14.5186C90.3217 13.5433 90.9981 12.6269 91.4633 11.7694C91.9284 10.9118 92.1587 10.1485 92.1587 9.47947C92.1587 8.39578 91.8264 7.5194 91.1618 6.8527C90.4973 6.18363 89.6191 5.85146 88.5273 5.85146C88.036 5.85146 87.5447 5.95512 87.0535 6.16243C86.5622 6.36975 86.116 6.65009 85.7172 7.00111C85.3161 7.35214 84.9886 7.75499 84.7346 8.20731C84.5898 8.42405 84.4379 8.56776 84.2837 8.64079C84.1294 8.71382 83.9704 8.74916 83.8066 8.74916C83.5337 8.74916 83.2845 8.65492 83.0566 8.4641C82.8288 8.27327 82.7148 8.04476 82.7148 7.77383C82.7148 7.57594 82.7742 7.38983 82.8929 7.21785C83.0115 7.04588 83.161 6.8527 83.3438 6.63596C83.7259 6.11296 84.203 5.63708 84.7773 5.21302C85.3517 4.78897 85.9783 4.44973 86.6595 4.19765C87.3406 3.94558 88.0099 3.81836 88.665 3.81836C89.828 3.81836 90.8438 4.04923 91.7077 4.50862C92.5717 4.97037 93.241 5.61116 93.7133 6.431C94.1856 7.25319 94.4229 8.23322 94.4229 9.3711C94.4229 10.3276 94.131 11.3806 93.5495 12.5279C92.968 13.6752 92.1112 14.8532 90.9838 16.0641L86.2085 21.2917L85.9356 21.0208H93.9316Z" fill="#E31837"/>
<path d="M104.329 8.69531C105.129 8.69531 105.867 8.82724 106.539 9.08874C107.211 9.35024 107.799 9.68948 108.3 10.1041C108.801 10.5187 109.193 10.9522 109.473 11.4045C109.755 11.8569 109.895 12.2809 109.895 12.6767L109.349 12.3516V9.99574C109.349 9.68948 109.454 9.43034 109.663 9.22302C109.871 9.01571 110.13 8.91205 110.441 8.91205C110.769 8.91205 111.037 9.01571 111.246 9.22302C111.454 9.43034 111.559 9.68713 111.559 9.99574V21.8598C111.559 23.3416 111.246 24.5738 110.617 25.5585C109.99 26.5432 109.148 27.2736 108.091 27.7518C107.035 28.23 105.853 28.4703 104.543 28.4703C103.997 28.4703 103.397 28.402 102.742 28.2677C102.087 28.1334 101.505 27.9615 100.995 27.7518C100.485 27.5445 100.157 27.3325 100.012 27.1157C99.7393 26.9178 99.5708 26.7105 99.5067 26.4938C99.4426 26.277 99.4758 26.0603 99.6016 25.8436C99.7844 25.5915 100 25.4643 100.257 25.4643C100.513 25.4643 100.838 25.5444 101.239 25.7069C101.422 25.7611 101.69 25.8506 102.044 25.9778C102.4 26.1051 102.799 26.2181 103.245 26.3171C103.691 26.416 104.132 26.4655 104.569 26.4655C106.114 26.4655 107.299 26.0627 108.117 25.2593C108.936 24.456 109.344 23.3935 109.344 22.0766V19.5581L109.644 19.6924C109.534 20.1989 109.316 20.6678 108.988 21.1012C108.661 21.5347 108.255 21.9187 107.773 22.2532C107.291 22.5878 106.76 22.8493 106.176 23.0401C105.594 23.2309 104.994 23.3252 104.375 23.3252C103.1 23.3252 101.958 23.0095 100.95 22.3781C99.941 21.7467 99.1388 20.8798 98.5478 19.7772C97.9568 18.6747 97.6602 17.4214 97.6602 16.0126C97.6602 14.6038 97.9545 13.3222 98.5478 12.2197C99.1388 11.1195 99.9339 10.2549 100.935 9.63294C101.935 9.011 103.064 8.69767 104.32 8.69767L104.329 8.69531ZM104.631 10.7001C103.703 10.7001 102.87 10.931 102.134 11.3904C101.398 11.8522 100.824 12.4835 100.416 13.2869C100.007 14.0902 99.801 14.9972 99.801 16.0102C99.801 17.0232 100.005 17.902 100.416 18.7053C100.824 19.5087 101.398 20.1448 102.134 20.6159C102.87 21.0847 103.703 21.3203 104.631 21.3203C105.559 21.3203 106.413 21.0894 107.142 20.6301C107.871 20.1683 108.443 19.5417 108.86 18.7477C109.278 17.9538 109.487 17.0421 109.487 16.0126C109.487 14.9831 109.278 14.0667 108.86 13.2633C108.443 12.46 107.868 11.8333 107.142 11.381C106.413 10.9287 105.578 10.7049 104.631 10.7049V10.7001Z" fill="#E31837"/>
<path d="M129 16.0098C129 17.4186 128.687 18.6743 128.058 19.7745C127.432 20.877 126.584 21.744 125.521 22.3753C124.458 23.0067 123.259 23.3224 121.932 23.3224C120.606 23.3224 119.402 23.0067 118.33 22.3753C117.257 21.744 116.405 20.877 115.778 19.7745C115.152 18.6719 114.836 17.4186 114.836 16.0098C114.836 14.601 115.149 13.3454 115.778 12.2452C116.407 11.145 117.257 10.278 118.33 9.64432C119.402 9.01295 120.603 8.69727 121.932 8.69727C123.262 8.69727 124.458 9.01295 125.521 9.64432C126.584 10.2757 127.432 11.1426 128.058 12.2452C128.687 13.3477 129 14.601 129 16.0098ZM126.788 16.0098C126.788 14.9638 126.575 14.0451 126.148 13.2606C125.72 12.4761 125.139 11.8518 124.401 11.3924C123.665 10.9306 122.841 10.7021 121.93 10.7021C121.019 10.7021 120.169 10.933 119.433 11.3924C118.697 11.8541 118.109 12.4761 117.672 13.2606C117.235 14.0474 117.017 14.9638 117.017 16.0098C117.017 17.0558 117.235 17.9511 117.672 18.745C118.109 19.5389 118.695 20.1679 119.433 20.6273C120.169 21.089 121.002 21.3176 121.93 21.3176C122.858 21.3176 123.663 21.0867 124.401 20.6273C125.137 20.1656 125.72 19.5389 126.148 18.745C126.575 17.9511 126.788 17.0393 126.788 16.0098Z" fill="#E31837"/>
<path d="M99.25 36.6316V32.7539H102.967V33.6232H100.366V34.5585H102.644V35.3948H100.373V36.6293H99.25V36.6316Z" fill="#4D4D4F"/>
<path d="M103.566 36.6316V32.7539H104.682V36.6316H103.566Z" fill="#4D4D4F"/>
<path d="M105.574 36.6317V32.7422H106.569L108.724 35.2017V32.7516H109.728V36.6364H108.733L106.578 34.2594V36.6317H105.574Z" fill="#4D4D4F"/>
<path d="M110.23 36.6325L112.001 32.7383H113.223L114.999 36.6325H113.736L113.435 35.9116H111.716L111.415 36.6325H110.23ZM111.982 35.1248H113.166L112.575 33.5793L111.984 35.1248H111.982Z" fill="#4D4D4F"/>
<path d="M115.5 36.6317V32.7422H116.494L118.65 35.2017V32.7516H119.653V36.6364H118.659L116.504 34.2594V36.6317H115.5Z" fill="#4D4D4F"/>
<path d="M120.363 34.7751C120.363 34.2922 120.458 33.8964 120.648 33.5925C120.838 33.2886 121.12 33.0624 121.493 32.9164C121.868 32.7703 122.328 32.6973 122.874 32.6973C123.057 32.6973 123.221 32.702 123.366 32.709C123.51 32.7161 123.646 32.7279 123.774 32.7444C123.9 32.7609 124.023 32.7821 124.144 32.8056C124.265 32.8292 124.391 32.8598 124.522 32.8975L124.298 33.6891C124.135 33.6561 123.978 33.6302 123.826 33.609C123.677 33.5878 123.527 33.5736 123.382 33.5619C123.237 33.5501 123.093 33.5454 122.948 33.5454C122.694 33.5454 122.478 33.5689 122.295 33.6137C122.112 33.6608 121.963 33.7315 121.849 33.8281C121.733 33.9247 121.647 34.0495 121.593 34.2027C121.536 34.3558 121.51 34.5395 121.51 34.7539C121.51 34.9471 121.536 35.112 121.59 35.2534C121.645 35.3947 121.728 35.5078 121.844 35.595C121.961 35.6821 122.105 35.7457 122.279 35.7881C122.454 35.8305 122.663 35.8518 122.91 35.8518C123.157 35.8518 123.418 35.8353 123.684 35.8046C123.95 35.774 124.201 35.7292 124.441 35.6751L124.643 36.4454C124.517 36.4831 124.389 36.5161 124.258 36.5444C124.128 36.575 123.987 36.5986 123.836 36.6198C123.684 36.641 123.52 36.6575 123.342 36.6692C123.164 36.681 122.965 36.6881 122.744 36.6881C122.357 36.6881 122.015 36.6527 121.719 36.5797C121.422 36.5067 121.175 36.396 120.973 36.2452C120.772 36.0944 120.62 35.8965 120.518 35.6562C120.415 35.4136 120.363 35.1214 120.363 34.7775V34.7751Z" fill="#4D4D4F"/>
<path d="M125.25 36.6316V32.7539H129V33.5949H126.356V34.2546H128.841V35.0367H126.356V35.7953H129V36.6316H125.25Z" fill="#4D4D4F"/>
<path fill-rule="evenodd" clip-rule="evenodd" d="M61.7917 32.7507H64.7799C65.4587 32.7507 66.0117 33.2807 66.0117 33.9286V36.6284H61.5449C61.1319 36.6284 60.7949 36.3056 60.7949 35.9099V34.9722C60.7949 34.6047 61.1082 34.3055 61.4927 34.3055H63.9705L63.7071 34.8521H61.8843C61.8036 34.8521 61.7158 34.911 61.7158 34.9958V35.7332C61.7158 35.818 61.8036 35.8769 61.8843 35.8769H65.0457V34.1076C65.0457 33.7637 64.7371 33.5022 64.3954 33.5022H61.4286L61.7894 32.7507H61.7917ZM86.3424 31.3395V36.6284H81.9871C81.5742 36.6284 81.2371 36.3056 81.2371 35.9099V33.9286C81.2371 33.2807 81.7925 32.7507 82.4689 32.7507H84.9515L84.586 33.5022H82.8534C82.5117 33.5022 82.2031 33.7637 82.2031 34.1076V35.7332C82.2031 35.818 82.2909 35.8769 82.3716 35.8769H85.3811V31.3395H86.3471H86.3424ZM71.0362 36.6307H72.0022V33.9309C72.0022 33.2831 71.4468 32.753 70.7704 32.753H68.7197L68.3542 33.5045H70.3859C70.7276 33.5045 71.0362 33.766 71.0362 34.11V36.6307ZM67.0227 31.3395V36.6284H67.9887V31.3395H67.0227ZM58.9792 36.6307H59.9452V33.9309C59.9452 33.2831 59.3898 32.753 58.7134 32.753H52.3906V36.6331H53.3566V33.6506C53.3566 33.5658 53.4444 33.5069 53.5251 33.5069H55.5188C55.5995 33.5069 55.6873 33.5658 55.6873 33.6506V36.6331H56.6533V33.6506C56.6533 33.5658 56.7411 33.5069 56.8218 33.5069H58.3337C58.6754 33.5069 58.984 33.7684 58.984 34.1123V36.6355L58.9792 36.6307ZM91.3764 32.7507H88.9555C88.2767 32.7507 87.7237 33.2807 87.7237 33.9286V36.6284H88.6897V34.1053C88.6897 33.7613 88.9982 33.4998 89.34 33.4998H91.0133L91.3788 32.7483L91.3764 32.7507ZM79.0275 32.7507C79.7063 32.7507 80.2593 33.2807 80.2593 33.9286V36.6284H79.2933V34.1053C79.2933 33.7613 78.9848 33.4998 78.643 33.4998H76.3242V36.626H75.3582V32.7483C76.5781 32.7483 77.8004 32.7483 79.0251 32.7483L79.0275 32.7507ZM73.1984 32.9957L74.1644 32.4515V36.6307H73.1984V32.9957ZM74.1644 31.9049V31.3301H73.1984V32.4491L74.1644 31.9049ZM92.0481 32.7507H95.0362C95.715 32.7507 96.268 33.2807 96.268 33.9286V36.6284H91.8012C91.3883 36.6284 91.0512 36.3056 91.0512 35.9099V34.9722C91.0512 34.6047 91.3645 34.3055 91.749 34.3055H94.2269L93.9634 34.8521H92.1406C92.0599 34.8521 91.9721 34.911 91.9721 34.9958V35.7332C91.9721 35.818 92.0599 35.8769 92.1406 35.8769H95.302V34.1076C95.302 33.7637 94.9935 33.5022 94.6517 33.5022H91.6849L92.0457 32.7507H92.0481Z" fill="#E31837"/>
</g>
<defs>
<clipPath id="clip0_3593_9276">
<rect width="129" height="40" fill="white"/>
</clipPath>
</defs>
</svg>
